<mxfile host="app.diagrams.net" modified="2022-09-17T19:35:30.139Z" agent="5.0 (Windows NT 10.0; Win64; x64) AppleWebKit/537.36 (KHTML, like Gecko) Chrome/104.0.5112.102 Safari/537.36 OPR/90.0.4480.84" etag="PIpJB3OUtNuORmyuV5tq" version="20.3.0" type="github">
  <diagram id="ScucTuh3Bh_bRBH-CMCL" name="PÃ¡gina-1">
    <mxGraphModel dx="2473" dy="1460" grid="1" gridSize="10" guides="1" tooltips="1" connect="1" arrows="1" fold="1" page="1" pageScale="1" pageWidth="827" pageHeight="1169" math="0" shadow="0">
      <root>
        <mxCell id="0" />
        <mxCell id="1" parent="0" />
        <mxCell id="rsYoMH-1anPXVZrnI3iw-2" value="AppTrader" style="swimlane;fontStyle=1;align=center;verticalAlign=top;childLayout=stackLayout;horizontal=1;startSize=26;horizontalStack=0;resizeParent=1;resizeParentMax=0;resizeLast=0;collapsible=1;marginBottom=0;" vertex="1" parent="1">
          <mxGeometry x="80" y="410" width="320" height="108" as="geometry" />
        </mxCell>
        <mxCell id="rsYoMH-1anPXVZrnI3iw-3" value="&lt;&lt;Property&gt;&gt; -name_account : Str&#xa;&lt;&lt;Property&gt;&gt; -name_crypto : None" style="text;strokeColor=none;fillColor=none;align=left;verticalAlign=top;spacingLeft=4;spacingRight=4;overflow=hidden;rotatable=0;points=[[0,0.5],[1,0.5]];portConstraint=eastwest;" vertex="1" parent="rsYoMH-1anPXVZrnI3iw-2">
          <mxGeometry y="26" width="320" height="34" as="geometry" />
        </mxCell>
        <mxCell id="rsYoMH-1anPXVZrnI3iw-4" value="" style="line;strokeWidth=1;fillColor=none;align=left;verticalAlign=middle;spacingTop=-1;spacingLeft=3;spacingRight=3;rotatable=0;labelPosition=right;points=[];portConstraint=eastwest;strokeColor=inherit;" vertex="1" parent="rsYoMH-1anPXVZrnI3iw-2">
          <mxGeometry y="60" width="320" height="8" as="geometry" />
        </mxCell>
        <mxCell id="rsYoMH-1anPXVZrnI3iw-5" value="Sell()&#xa;Buy()" style="text;strokeColor=none;fillColor=none;align=left;verticalAlign=top;spacingLeft=4;spacingRight=4;overflow=hidden;rotatable=0;points=[[0,0.5],[1,0.5]];portConstraint=eastwest;" vertex="1" parent="rsYoMH-1anPXVZrnI3iw-2">
          <mxGeometry y="68" width="320" height="40" as="geometry" />
        </mxCell>
        <mxCell id="rsYoMH-1anPXVZrnI3iw-11" value="Account" style="swimlane;fontStyle=1;align=center;verticalAlign=top;childLayout=stackLayout;horizontal=1;startSize=26;horizontalStack=0;resizeParent=1;resizeParentMax=0;resizeLast=0;collapsible=1;marginBottom=0;" vertex="1" parent="1">
          <mxGeometry x="620" y="438" width="200" height="80" as="geometry" />
        </mxCell>
        <mxCell id="rsYoMH-1anPXVZrnI3iw-13" value="" style="line;strokeWidth=1;fillColor=none;align=left;verticalAlign=middle;spacingTop=-1;spacingLeft=3;spacingRight=3;rotatable=0;labelPosition=right;points=[];portConstraint=eastwest;strokeColor=inherit;" vertex="1" parent="rsYoMH-1anPXVZrnI3iw-11">
          <mxGeometry y="26" width="200" height="8" as="geometry" />
        </mxCell>
        <mxCell id="rsYoMH-1anPXVZrnI3iw-14" value="conta_comprar(Type: [AppTrader])&#xa;conta_vender(Type: [AppTrader])" style="text;strokeColor=none;fillColor=none;align=left;verticalAlign=top;spacingLeft=4;spacingRight=4;overflow=hidden;rotatable=0;points=[[0,0.5],[1,0.5]];portConstraint=eastwest;" vertex="1" parent="rsYoMH-1anPXVZrnI3iw-11">
          <mxGeometry y="34" width="200" height="46" as="geometry" />
        </mxCell>
        <mxCell id="rsYoMH-1anPXVZrnI3iw-24" value="" style="endArrow=diamondThin;endFill=0;endSize=24;html=1;rounded=0;exitX=-0.007;exitY=0.071;exitDx=0;exitDy=0;exitPerimeter=0;" edge="1" parent="1" source="rsYoMH-1anPXVZrnI3iw-14">
          <mxGeometry width="160" relative="1" as="geometry">
            <mxPoint x="620" y="475" as="sourcePoint" />
            <mxPoint x="400" y="475" as="targetPoint" />
          </mxGeometry>
        </mxCell>
        <mxCell id="rsYoMH-1anPXVZrnI3iw-25" value="&lt;font style=&quot;font-size: 10px;&quot;&gt;&amp;lt;&amp;lt;Account usa apptrader para compra&amp;gt;&amp;gt;&lt;/font&gt;" style="text;html=1;align=center;verticalAlign=middle;resizable=0;points=[];autosize=1;strokeColor=none;fillColor=none;" vertex="1" parent="1">
          <mxGeometry x="414" y="449" width="210" height="30" as="geometry" />
        </mxCell>
        <mxCell id="rsYoMH-1anPXVZrnI3iw-27" value="" style="endArrow=open;endFill=1;endSize=12;html=1;rounded=0;fontSize=10;" edge="1" parent="1">
          <mxGeometry width="160" relative="1" as="geometry">
            <mxPoint x="239.5" y="518" as="sourcePoint" />
            <mxPoint x="239.5" y="608" as="targetPoint" />
          </mxGeometry>
        </mxCell>
        <mxCell id="rsYoMH-1anPXVZrnI3iw-28" value="Crypto" style="swimlane;fontStyle=1;align=center;verticalAlign=top;childLayout=stackLayout;horizontal=1;startSize=26;horizontalStack=0;resizeParent=1;resizeParentMax=0;resizeLast=0;collapsible=1;marginBottom=0;fontSize=10;" vertex="1" parent="1">
          <mxGeometry x="160" y="610" width="160" height="86" as="geometry" />
        </mxCell>
        <mxCell id="rsYoMH-1anPXVZrnI3iw-29" value="+nome_crypto : str" style="text;strokeColor=none;fillColor=none;align=left;verticalAlign=top;spacingLeft=4;spacingRight=4;overflow=hidden;rotatable=0;points=[[0,0.5],[1,0.5]];portConstraint=eastwest;fontSize=10;" vertex="1" parent="rsYoMH-1anPXVZrnI3iw-28">
          <mxGeometry y="26" width="160" height="26" as="geometry" />
        </mxCell>
        <mxCell id="rsYoMH-1anPXVZrnI3iw-30" value="" style="line;strokeWidth=1;fillColor=none;align=left;verticalAlign=middle;spacingTop=-1;spacingLeft=3;spacingRight=3;rotatable=0;labelPosition=right;points=[];portConstraint=eastwest;strokeColor=inherit;fontSize=10;" vertex="1" parent="rsYoMH-1anPXVZrnI3iw-28">
          <mxGeometry y="52" width="160" height="8" as="geometry" />
        </mxCell>
        <mxCell id="rsYoMH-1anPXVZrnI3iw-31" value="add_cryto()" style="text;strokeColor=none;fillColor=none;align=left;verticalAlign=top;spacingLeft=4;spacingRight=4;overflow=hidden;rotatable=0;points=[[0,0.5],[1,0.5]];portConstraint=eastwest;fontSize=10;" vertex="1" parent="rsYoMH-1anPXVZrnI3iw-28">
          <mxGeometry y="60" width="160" height="26" as="geometry" />
        </mxCell>
        <mxCell id="rsYoMH-1anPXVZrnI3iw-33" value="" style="endArrow=none;html=1;edgeStyle=orthogonalEdgeStyle;rounded=0;fontSize=10;entryX=0;entryY=0.5;entryDx=0;entryDy=0;" edge="1" parent="1" target="rsYoMH-1anPXVZrnI3iw-14">
          <mxGeometry relative="1" as="geometry">
            <mxPoint x="400" y="500" as="sourcePoint" />
            <mxPoint x="560" y="500" as="targetPoint" />
            <Array as="points">
              <mxPoint x="620" y="500" />
            </Array>
          </mxGeometry>
        </mxCell>
        <mxCell id="rsYoMH-1anPXVZrnI3iw-34" value="parent" style="edgeLabel;resizable=0;html=1;align=left;verticalAlign=bottom;fontSize=10;" connectable="0" vertex="1" parent="rsYoMH-1anPXVZrnI3iw-33">
          <mxGeometry x="-1" relative="1" as="geometry" />
        </mxCell>
        <mxCell id="rsYoMH-1anPXVZrnI3iw-35" value="child" style="edgeLabel;resizable=0;html=1;align=right;verticalAlign=bottom;fontSize=10;" connectable="0" vertex="1" parent="rsYoMH-1anPXVZrnI3iw-33">
          <mxGeometry x="1" relative="1" as="geometry" />
        </mxCell>
        <mxCell id="rsYoMH-1anPXVZrnI3iw-36" value="" style="endArrow=none;html=1;edgeStyle=orthogonalEdgeStyle;rounded=0;fontSize=10;entryX=0.75;entryY=0;entryDx=0;entryDy=0;" edge="1" parent="1" target="rsYoMH-1anPXVZrnI3iw-28">
          <mxGeometry relative="1" as="geometry">
            <mxPoint x="280" y="518" as="sourcePoint" />
            <mxPoint x="440" y="518" as="targetPoint" />
          </mxGeometry>
        </mxCell>
        <mxCell id="rsYoMH-1anPXVZrnI3iw-37" value="parent" style="edgeLabel;resizable=0;html=1;align=left;verticalAlign=bottom;fontSize=10;" connectable="0" vertex="1" parent="rsYoMH-1anPXVZrnI3iw-36">
          <mxGeometry x="-1" relative="1" as="geometry">
            <mxPoint y="32" as="offset" />
          </mxGeometry>
        </mxCell>
        <mxCell id="rsYoMH-1anPXVZrnI3iw-38" value="child" style="edgeLabel;resizable=0;html=1;align=right;verticalAlign=bottom;fontSize=10;" connectable="0" vertex="1" parent="rsYoMH-1anPXVZrnI3iw-36">
          <mxGeometry x="1" relative="1" as="geometry">
            <mxPoint x="20" as="offset" />
          </mxGeometry>
        </mxCell>
        <mxCell id="rsYoMH-1anPXVZrnI3iw-39" value="&amp;lt;&amp;lt;consulta o nome&amp;gt;&amp;gt;" style="text;html=1;align=center;verticalAlign=middle;resizable=0;points=[];autosize=1;strokeColor=none;fillColor=none;fontSize=10;" vertex="1" parent="1">
          <mxGeometry x="120" y="560" width="120" height="30" as="geometry" />
        </mxCell>
        <mxCell id="rsYoMH-1anPXVZrnI3iw-43" value="" style="endArrow=open;endFill=1;endSize=12;html=1;rounded=0;fontSize=10;entryX=0.5;entryY=1;entryDx=0;entryDy=0;" edge="1" parent="1">
          <mxGeometry width="160" relative="1" as="geometry">
            <mxPoint x="540" y="870" as="sourcePoint" />
            <mxPoint x="480" y="820" as="targetPoint" />
          </mxGeometry>
        </mxCell>
        <mxCell id="rsYoMH-1anPXVZrnI3iw-45" value="" style="endArrow=open;endFill=1;endSize=12;html=1;rounded=0;fontSize=8;entryX=0.554;entryY=-0.03;entryDx=0;entryDy=0;entryPerimeter=0;" edge="1" parent="1">
          <mxGeometry width="160" relative="1" as="geometry">
            <mxPoint x="460" y="820" as="sourcePoint" />
            <mxPoint x="395.4000000000001" y="868.5" as="targetPoint" />
          </mxGeometry>
        </mxCell>
        <mxCell id="rsYoMH-1anPXVZrnI3iw-46" value="" style="endArrow=none;html=1;edgeStyle=orthogonalEdgeStyle;rounded=0;fontSize=8;entryX=0.25;entryY=0;entryDx=0;entryDy=0;exitX=0.144;exitY=1.07;exitDx=0;exitDy=0;exitPerimeter=0;" edge="1" parent="1">
          <mxGeometry relative="1" as="geometry">
            <mxPoint x="396.90999999999997" y="800" as="sourcePoint" />
            <mxPoint x="365" y="870" as="targetPoint" />
            <Array as="points">
              <mxPoint x="360" y="800" />
              <mxPoint x="360" y="870" />
            </Array>
          </mxGeometry>
        </mxCell>
        <mxCell id="rsYoMH-1anPXVZrnI3iw-47" value="parent" style="edgeLabel;resizable=0;html=1;align=left;verticalAlign=bottom;fontSize=8;" connectable="0" vertex="1" parent="rsYoMH-1anPXVZrnI3iw-46">
          <mxGeometry x="-1" relative="1" as="geometry">
            <mxPoint x="-27" as="offset" />
          </mxGeometry>
        </mxCell>
        <mxCell id="rsYoMH-1anPXVZrnI3iw-48" value="child" style="edgeLabel;resizable=0;html=1;align=right;verticalAlign=bottom;fontSize=8;" connectable="0" vertex="1" parent="rsYoMH-1anPXVZrnI3iw-46">
          <mxGeometry x="1" relative="1" as="geometry">
            <mxPoint x="15" as="offset" />
          </mxGeometry>
        </mxCell>
        <mxCell id="rsYoMH-1anPXVZrnI3iw-49" value="&lt;p style=&quot;margin:0px;margin-top:4px;text-align:center;text-decoration:underline;&quot;&gt;&lt;b&gt;New Account&lt;/b&gt;&lt;/p&gt;&lt;hr&gt;&lt;p style=&quot;margin:0px;margin-left:8px;&quot;&gt;&lt;span style=&quot;text-align: center; font-size: 8px;&quot;&gt;-&lt;/span&gt;&lt;font style=&quot;text-align: center; font-size: 8px;&quot;&gt;Name_acount = Hacker 01&lt;/font&gt;&lt;br&gt;&lt;/p&gt;" style="verticalAlign=top;align=left;overflow=fill;fontSize=12;fontFamily=Helvetica;html=1;" vertex="1" parent="1">
          <mxGeometry x="400" y="770" width="120" height="50" as="geometry" />
        </mxCell>
        <mxCell id="rsYoMH-1anPXVZrnI3iw-50" value="&lt;p style=&quot;margin:0px;margin-top:4px;text-align:center;text-decoration:underline;&quot;&gt;&lt;b&gt;Account&lt;/b&gt;&lt;/p&gt;&lt;hr&gt;&lt;p style=&quot;text-align: center; margin: 0px 0px 0px 8px;&quot;&gt;&lt;span style=&quot;font-size: 8px;&quot;&gt;Account_buy()&lt;/span&gt;&lt;/p&gt;&lt;p style=&quot;text-align: center; margin: 0px 0px 0px 8px;&quot;&gt;&lt;span style=&quot;font-size: 8px;&quot;&gt;Account_sell()&lt;/span&gt;&lt;/p&gt;" style="verticalAlign=top;align=left;overflow=fill;fontSize=12;fontFamily=Helvetica;html=1;" vertex="1" parent="1">
          <mxGeometry x="330" y="870" width="110" height="60" as="geometry" />
        </mxCell>
        <mxCell id="rsYoMH-1anPXVZrnI3iw-51" value="&lt;p style=&quot;margin:0px;margin-top:4px;text-align:center;text-decoration:underline;&quot;&gt;&lt;b&gt;Crypto&lt;/b&gt;&lt;/p&gt;&lt;hr&gt;&lt;p style=&quot;text-align: center; margin: 0px 0px 0px 8px;&quot;&gt;&lt;span style=&quot;font-size: 8px;&quot;&gt;+name_of_crypto&lt;/span&gt;&lt;/p&gt;&lt;p style=&quot;text-align: center; margin: 0px 0px 0px 8px;&quot;&gt;&lt;span style=&quot;font-size: 8px;&quot;&gt;Account_sell()&lt;/span&gt;&lt;/p&gt;" style="verticalAlign=top;align=left;overflow=fill;fontSize=12;fontFamily=Helvetica;html=1;" vertex="1" parent="1">
          <mxGeometry x="480" y="870" width="110" height="60" as="geometry" />
        </mxCell>
      </root>
    </mxGraphModel>
  </diagram>
</mxfile>
